<?xml version="1.0" encoding="utf-8"?>
<!-- Generator: Adobe Illustrator 22.0.1, SVG Export Plug-In . SVG Version: 6.00 Build 0)  -->
<svg version="1.1" id="Ebene_1" xmlns="http://www.w3.org/2000/svg" x="0px" y="0px"
     viewBox="0 0 65 65" style="enable-background:new 0 0 64 64;" xml:space="preserve">
    <circle cx="32.5" cy="32.5" r="32" fill="white"/>
    <style type="text/css">
	.st0{fill:#333333;}
</style>
    <g transform="translate(3,2.5)">
		<circle class="st0" cx="29.2" cy="30" r="1.6"/>
        <path class="st0" d="M33.1,27.6c0-0.9-0.7-1.6-1.6-1.6S30,26.7,30,27.6s0.7,1.6,1.6,1.6C32.4,29.1,33.1,28.4,33.1,27.6z"/>
        <circle class="st0" cx="31.6" cy="32.5" r="1.6"/>
        <circle class="st0" cx="34.3" cy="30" r="1.6"/>
        <path class="st0" d="M37.3,25.9c-0.9,0-1.6,0.7-1.6,1.6s0.7,1.6,1.6,1.6c0.9,0,1.6-0.7,1.6-1.6C38.8,26.6,38.1,25.9,37.3,25.9
			L37.3,25.9z"/>
        <circle class="st0" cx="37.2" cy="32.5" r="1.6"/>
        <path class="st0" d="M34.2,36.6c0.9,0,1.6-0.7,1.6-1.6c0-0.9-0.7-1.6-1.6-1.6s-1.6,0.7-1.6,1.6C32.6,35.9,33.3,36.6,34.2,36.6
			L34.2,36.6z M33.3,38.1c0-0.9-0.7-1.6-1.6-1.6s-1.6,0.7-1.6,1.6s0.7,1.6,1.6,1.6C32.6,39.6,33.3,38.9,33.3,38.1L33.3,38.1z
			 M29.3,43c0.9,0,1.6-0.7,1.6-1.6c0-0.9-0.7-1.6-1.6-1.6s-1.6,0.7-1.6,1.6C27.7,42.3,28.4,43,29.3,43L29.3,43z"/>
        <circle class="st0" cx="40.6" cy="30" r="1.6"/>
        <circle class="st0" cx="40.4" cy="35.2" r="1.6"/>
        <path class="st0" d="M44.1,31.3c-0.9,0-1.6,0.7-1.6,1.6s0.7,1.6,1.6,1.6c0.9,0,1.6-0.7,1.6-1.6S45,31.3,44.1,31.3z M45.3,38.2
			c0-0.9-0.7-1.6-1.6-1.6c-0.9,0-1.6,0.7-1.6,1.6c0,0.9,0.7,1.6,1.6,1.6S45.3,39.1,45.3,38.2z M41.5,40.6c0-0.9-0.7-1.6-1.6-1.6
			c-0.9,0-1.6,0.7-1.6,1.6c0,0.9,0.7,1.6,1.6,1.6C40.7,42.2,41.5,41.5,41.5,40.6L41.5,40.6z M34.4,42.8c0.9,0,1.6-0.7,1.6-1.6
			c0-0.9-0.7-1.6-1.6-1.6c-0.9,0-1.6,0.7-1.6,1.6C32.8,42.1,33.6,42.8,34.4,42.8L34.4,42.8z M31.9,46.5c0.9,0,1.6-0.7,1.6-1.6
			c0-0.9-0.7-1.6-1.6-1.6s-1.6,0.7-1.6,1.6C30.4,45.8,31.1,46.5,31.9,46.5L31.9,46.5z M29.2,50.4c0.9,0,1.6-0.7,1.6-1.6
			c0-0.9-0.7-1.6-1.6-1.6s-1.6,0.7-1.6,1.6S28.4,50.4,29.2,50.4L29.2,50.4z M38.5,37.7c0-0.9-0.7-1.6-1.6-1.6
			c-0.9,0-1.6,0.7-1.6,1.6c0,0.9,0.7,1.6,1.6,1.6S38.5,38.6,38.5,37.7L38.5,37.7z"/>
        <circle class="st0" cx="47.8" cy="35.7" r="1.6"/>
        <circle class="st0" cx="47.2" cy="41.4" r="1.6"/>
        <path class="st0" d="M51.1,43.3c-0.9,0-1.6,0.7-1.6,1.6c0,0.9,0.7,1.6,1.6,1.6c0.9,0,1.6-0.7,1.6-1.6C52.7,44,52,43.3,51.1,43.3
			L51.1,43.3z M46.3,45.5c-0.9,0-1.6,0.7-1.6,1.6c0,0.9,0.7,1.6,1.6,1.6c0.9,0,1.6-0.7,1.6-1.6C47.9,46.2,47.2,45.5,46.3,45.5z
			 M44.6,43.8c0-0.9-0.7-1.6-1.6-1.6s-1.6,0.7-1.6,1.6c0,0.9,0.7,1.6,1.6,1.6S44.6,44.7,44.6,43.8L44.6,43.8z M40.7,49.6
			c0.9,0,1.6-0.7,1.6-1.6c0-0.9-0.7-1.6-1.6-1.6c-0.9,0-1.6,0.7-1.6,1.6C39.1,48.9,39.8,49.6,40.7,49.6z M34.9,50.2
			c0.9,0,1.6-0.7,1.6-1.6c0-0.9-0.7-1.6-1.6-1.6c-0.9,0-1.6,0.7-1.6,1.6C33.4,49.5,34.1,50.2,34.9,50.2L34.9,50.2z M39,44.5
			c0-0.9-0.7-1.6-1.6-1.6c-0.9,0-1.6,0.7-1.6,1.6c0,0.9,0.7,1.6,1.6,1.6S39,45.4,39,44.5L39,44.5z"/>
        <circle class="st0" cx="50" cy="50.8" r="1.6"/>
        <circle class="st0" cx="44" cy="51.9" r="1.6"/>
        <path class="st0" d="M41.4,54.9c-0.9,0-1.6,0.7-1.6,1.6c0,0.9,0.7,1.6,1.6,1.6c0.9,0,1.6-0.7,1.6-1.6C43,55.6,42.3,54.9,41.4,54.9
			L41.4,54.9z"/>
        <circle class="st0" cx="38.1" cy="52.6" r="1.6"/>
        <path class="st0" d="M35.3,55.7c-0.9,0-1.6,0.7-1.6,1.6c0,0.9,0.7,1.6,1.6,1.6c0.9,0,1.6-0.7,1.6-1.6
			C36.9,56.4,36.2,55.7,35.3,55.7z"/>
        <circle class="st0" cx="32.1" cy="53" r="1.6"/>
        <circle class="st0" cx="29.3" cy="57.6" r="1.6"/>
        <circle class="st0" cx="26.2" cy="52.9" r="1.6"/>
        <path class="st0" d="M23,55.7c-0.9,0-1.6,0.7-1.6,1.6c0,0.9,0.7,1.6,1.6,1.6s1.6-0.7,1.6-1.6C24.6,56.5,23.9,55.7,23,55.7L23,55.7
			z"/>
        <circle class="st0" cx="17.1" cy="56.5" r="1.6"/>
        <path class="st0" d="M51.8,37.3c-0.9,0-1.6,0.7-1.6,1.6c0,0.9,0.7,1.6,1.6,1.6s1.6-0.7,1.6-1.6C53.4,38,52.7,37.3,51.8,37.3
			L51.8,37.3z M55.7,40.5c-0.9,0-1.6,0.7-1.6,1.6c0,0.9,0.7,1.6,1.6,1.6c0.9,0,1.6-0.7,1.6-1.6S56.6,40.5,55.7,40.5L55.7,40.5z
			 M56.5,34.5c-0.9,0-1.6,0.7-1.6,1.6c0,0.9,0.7,1.6,1.6,1.6c0.9,0,1.6-0.7,1.6-1.6S57.4,34.5,56.5,34.5L56.5,34.5z M52.1,31.4
			c-0.9,0-1.6,0.7-1.6,1.6s0.7,1.6,1.6,1.6c0.9,0,1.6-0.7,1.6-1.6C53.7,32.1,53,31.4,52.1,31.4L52.1,31.4z"/>
        <circle class="st0" cx="56.8" cy="30" r="1.6"/>
        <circle class="st0" cx="52.1" cy="27.1" r="1.6"/>
        <circle class="st0" cx="56.5" cy="23.9" r="1.6"/>
        <path class="st0" d="M50.2,21.1c0,0.9,0.7,1.6,1.6,1.6c0.9,0,1.6-0.7,1.6-1.6s-0.7-1.6-1.6-1.6C50.9,19.6,50.2,20.3,50.2,21.1
			L50.2,21.1z M55.7,19.4c0.9,0,1.6-0.7,1.6-1.6s-0.7-1.6-1.6-1.6c-0.9,0-1.6,0.7-1.6,1.6C54.2,18.7,54.9,19.4,55.7,19.4L55.7,19.4z
			"/>
        <circle class="st0" cx="51.1" cy="15.2" r="1.6"/>
        <path class="st0" d="M50,10.9c0.9,0,1.6-0.7,1.6-1.6c0-0.9-0.7-1.6-1.6-1.6c-0.9,0-1.6,0.7-1.6,1.6C48.4,10.2,49.1,10.9,50,10.9
			L50,10.9z"/>
        <circle class="st0" cx="46.4" cy="12.9" r="1.6"/>
        <path class="st0" d="M43,14.6c-0.9,0-1.6,0.7-1.6,1.6c0,0.9,0.7,1.6,1.6,1.6c0.9,0,1.6-0.7,1.6-1.6C44.6,15.3,43.9,14.6,43,14.6
			L43,14.6z M38.3,19.4c0,0.9,0.7,1.6,1.6,1.6c0.9,0,1.6-0.7,1.6-1.6s-0.7-1.6-1.6-1.6S38.3,18.5,38.3,19.4L38.3,19.4z"/>
        <circle class="st0" cx="37.4" cy="15.5" r="1.6"/>
        <circle class="st0" cx="34.9" cy="11.4" r="1.6"/>
        <circle class="st0" cx="32" cy="15.1" r="1.6"/>
        <circle class="st0" cx="26.3" cy="15.1" r="1.6"/>
        <circle class="st0" cx="24" cy="18.8" r="1.6"/>
        <path class="st0" d="M25,22c0,0.9,0.7,1.6,1.6,1.6s1.6-0.7,1.6-1.6s-0.7-1.6-1.6-1.6C25.8,20.4,25,21.1,25,22L25,22z"/>
        <circle class="st0" cx="21.5" cy="22.3" r="1.6"/>
        <circle class="st0" cx="18" cy="24.8" r="1.6"/>
        <path class="st0" d="M14.3,28.8c0.9,0,1.6-0.7,1.6-1.6s-0.7-1.6-1.6-1.6c-0.9,0-1.6,0.7-1.6,1.6C12.7,28.1,13.4,28.8,14.3,28.8
			L14.3,28.8z"/>
        <circle class="st0" cx="14.7" cy="21.8" r="1.6"/>
        <circle class="st0" cx="10.6" cy="24.3" r="1.6"/>
        <path class="st0" d="M6.2,28.7c0.9,0,1.6-0.7,1.6-1.6s-0.7-1.6-1.6-1.6s-1.6,0.7-1.6,1.6S5.4,28.7,6.2,28.7L6.2,28.7z M1.8,25.4
			c0.9,0,1.6-0.7,1.6-1.6s-0.7-1.6-1.6-1.6s-1.6,0.7-1.6,1.6C0.3,24.7,1,25.4,1.8,25.4L1.8,25.4z"/>
        <circle class="st0" cx="6.6" cy="21.2" r="1.6"/>
        <path class="st0" d="M2.7,16.2c-0.9,0-1.6,0.7-1.6,1.6s0.7,1.6,1.6,1.6s1.6-0.7,1.6-1.6C4.2,16.9,3.5,16.2,2.7,16.2z M7.3,16.8
			c0.9,0,1.6-0.7,1.6-1.6s-0.7-1.6-1.6-1.6s-1.6,0.7-1.6,1.6C5.7,16.1,6.4,16.8,7.3,16.8z"/>
        <circle class="st0" cx="11.1" cy="18.5" r="1.6"/>
        <circle class="st0" cx="15.4" cy="16.2" r="1.6"/>
        <circle class="st0" cx="18.5" cy="19.4" r="1.6"/>
        <path class="st0" d="M10.4,31.5c0.9,0,1.6-0.7,1.6-1.6s-0.7-1.6-1.6-1.6c-0.9,0-1.6,0.7-1.6,1.6C8.8,30.8,9.5,31.5,10.4,31.5
			L10.4,31.5z"/>
        <circle class="st0" cx="29.3" cy="18.6" r="1.6"/>
        <path class="st0" d="M40.7,10.4c-0.9,0-1.6,0.7-1.6,1.6c0,0.9,0.7,1.6,1.6,1.6c0.9,0,1.6-0.7,1.6-1.6
			C42.2,11.1,41.5,10.4,40.7,10.4L40.7,10.4z"/>
        <circle class="st0" cx="44" cy="8.1" r="1.6"/>
        <circle class="st0" cx="38.1" cy="7.4" r="1.6"/>
        <path class="st0" d="M41.4,5.1c0.9,0,1.6-0.7,1.6-1.6s-0.7-1.6-1.6-1.6c-0.9,0-1.6,0.7-1.6,1.6S40.6,5.1,41.4,5.1L41.4,5.1z"/>
        <circle class="st0" cx="35.3" cy="2.7" r="1.6"/>
        <circle class="st0" cx="29.2" cy="2.4" r="1.6"/>
        <circle class="st0" cx="23" cy="2.7" r="1.6"/>
        <path class="st0" d="M17.1,5.1c0.9,0,1.6-0.7,1.6-1.6S18,1.9,17.1,1.9s-1.6,0.7-1.6,1.6S16.2,5.1,17.1,5.1L17.1,5.1z"/>
        <circle class="st0" cx="26.2" cy="7.1" r="1.6"/>
        <path class="st0" d="M20.3,9c0.9,0,1.6-0.7,1.6-1.6s-0.7-1.6-1.6-1.6s-1.6,0.7-1.6,1.6C18.7,8.3,19.5,9,20.3,9z M17.7,10.4
			c-0.9,0-1.6,0.7-1.6,1.6c0,0.9,0.7,1.6,1.6,1.6s1.6-0.7,1.6-1.6C19.3,11.1,18.6,10.4,17.7,10.4L17.7,10.4z M12,14.5
			c0.9,0,1.6-0.7,1.6-1.6c0-0.9-0.7-1.6-1.6-1.6c-0.9,0-1.6,0.7-1.6,1.6S11.1,14.5,12,14.5L12,14.5z M8.7,10.8
			c0.9,0,1.6-0.7,1.6-1.6c0-0.9-0.7-1.6-1.6-1.6S7.1,8.3,7.1,9.2C7.1,10.1,7.8,10.8,8.7,10.8L8.7,10.8z M14.4,9.7
			C15.3,9.7,16,9,16,8.1s-0.7-1.6-1.6-1.6c-0.9,0-1.6,0.7-1.6,1.6C12.8,9,13.5,9.7,14.4,9.7L14.4,9.7z"/>
        <circle class="st0" cx="21" cy="15.5" r="1.6"/>
        <circle class="st0" cx="23.4" cy="11.4" r="1.6"/>
        <circle class="st0" cx="32.1" cy="7.1" r="1.6"/>
        <circle class="st0" cx="29.2" cy="11.2" r="1.6"/>
        <circle class="st0" cx="36.9" cy="22.3" r="1.6"/>
        <path class="st0" d="M34.2,23.4c-0.9,0-1.6,0.7-1.6,1.6s0.7,1.6,1.6,1.6s1.6-0.7,1.6-1.6S35.1,23.4,34.2,23.4z M30.2,21.9
			c0,0.9,0.7,1.6,1.6,1.6s1.6-0.7,1.6-1.6s-0.7-1.6-1.6-1.6C30.9,20.3,30.2,21.1,30.2,21.9L30.2,21.9z M29.2,23.3
			c-0.9,0-1.6,0.7-1.6,1.6s0.7,1.6,1.6,1.6s1.6-0.7,1.6-1.6C30.8,24,30.1,23.3,29.2,23.3z M25.2,27.6c0,0.9,0.7,1.6,1.6,1.6
			s1.6-0.7,1.6-1.6S27.7,26,26.8,26C25.9,26,25.2,26.7,25.2,27.6L25.2,27.6z M24.2,23.5c-0.9,0-1.6,0.7-1.6,1.6s0.7,1.6,1.6,1.6
			s1.6-0.7,1.6-1.6C25.8,24.2,25.1,23.5,24.2,23.5L24.2,23.5z M24.1,31.6c0.9,0,1.6-0.7,1.6-1.6s-0.7-1.6-1.6-1.6s-1.6,0.7-1.6,1.6
			S23.2,31.6,24.1,31.6L24.1,31.6z"/>
        <circle class="st0" cx="21.1" cy="27.5" r="1.6"/>
        <circle class="st0" cx="21.1" cy="32.6" r="1.6"/>
        <path class="st0" d="M17.8,31.5c0.9,0,1.6-0.7,1.6-1.6s-0.7-1.6-1.6-1.6s-1.6,0.7-1.6,1.6C16.2,30.8,16.9,31.5,17.8,31.5z"/>
        <circle class="st0" cx="18.1" cy="35.3" r="1.6"/>
        <path class="st0" d="M14.3,34.4c0.9,0,1.6-0.7,1.6-1.6c0-0.9-0.7-1.6-1.6-1.6c-0.9,0-1.6,0.7-1.6,1.6
			C12.7,33.7,13.4,34.4,14.3,34.4L14.3,34.4z M14.7,39.9c0.9,0,1.6-0.7,1.6-1.6c0-0.9-0.7-1.6-1.6-1.6c-0.9,0-1.6,0.7-1.6,1.6
			C13.1,39.1,13.8,39.9,14.7,39.9z M11.1,43.1c0.9,0,1.6-0.7,1.6-1.6c0-0.9-0.7-1.6-1.6-1.6c-0.9,0-1.6,0.7-1.6,1.6
			C9.6,42.4,10.3,43.1,11.1,43.1L11.1,43.1z M8.2,38.9c0-0.9-0.7-1.6-1.6-1.6S5,38,5,38.9s0.7,1.6,1.6,1.6S8.2,39.7,8.2,38.9z"/>
        <circle class="st0" cx="1.9" cy="36.1" r="1.6"/>
        <path class="st0" d="M6.2,34.6c0.9,0,1.6-0.7,1.6-1.6c0-0.9-0.7-1.6-1.6-1.6S4.6,32.1,4.6,33S5.4,34.6,6.2,34.6L6.2,34.6z"/>
        <circle class="st0" cx="1.6" cy="30" r="1.6"/>
        <path class="st0" d="M10.6,37.3c0.9,0,1.6-0.7,1.6-1.6c0-0.9-0.7-1.6-1.6-1.6c-0.9,0-1.6,0.7-1.6,1.6S9.7,37.3,10.6,37.3
			L10.6,37.3z M2.6,40.5c-0.9,0-1.6,0.7-1.6,1.6c0,0.9,0.7,1.6,1.6,1.6s1.6-0.7,1.6-1.6S3.5,40.5,2.6,40.5L2.6,40.5z"/>
        <circle class="st0" cx="7.3" cy="44.9" r="1.6"/>
        <path class="st0" d="M28.3,32.5c0-0.9-0.7-1.6-1.6-1.6s-1.6,0.7-1.6,1.6c0,0.9,0.7,1.6,1.6,1.6C27.6,34.1,28.3,33.4,28.3,32.5
			L28.3,32.5z M29.2,36.7c0.9,0,1.6-0.7,1.6-1.6c0-0.9-0.7-1.6-1.6-1.6s-1.6,0.7-1.6,1.6C27.7,35.9,28.4,36.7,29.2,36.7L29.2,36.7z
			 M28.2,38.1c0-0.9-0.7-1.6-1.6-1.6S25,37.2,25,38.1s0.7,1.6,1.6,1.6C27.5,39.6,28.2,38.9,28.2,38.1L28.2,38.1z M24,42.8
			c0.9,0,1.6-0.7,1.6-1.6c0-0.9-0.7-1.6-1.6-1.6s-1.6,0.7-1.6,1.6S23.1,42.8,24,42.8z"/>
        <circle class="st0" cx="26.4" cy="44.9" r="1.6"/>
        <circle class="st0" cx="23.4" cy="48.6" r="1.6"/>
        <circle class="st0" cx="17.7" cy="48" r="1.6"/>
        <path class="st0" d="M15.4,45.4c0.9,0,1.6-0.7,1.6-1.6c0-0.9-0.7-1.6-1.6-1.6s-1.6,0.7-1.6,1.6C13.9,44.7,14.6,45.4,15.4,45.4
			L15.4,45.4z M21,46.1c0.9,0,1.6-0.7,1.6-1.6c0-0.9-0.7-1.6-1.6-1.6s-1.6,0.7-1.6,1.6C19.4,45.4,20.1,46.1,21,46.1L21,46.1z
			 M20.1,40.6c0-0.9-0.7-1.6-1.6-1.6s-1.6,0.7-1.6,1.6c0,0.9,0.7,1.6,1.6,1.6C19.4,42.1,20.1,41.4,20.1,40.6z"/>
        <circle class="st0" cx="21.5" cy="37.7" r="1.6"/>
        <path class="st0" d="M24.2,36.6c0.9,0,1.6-0.7,1.6-1.6c0-0.9-0.7-1.6-1.6-1.6s-1.6,0.7-1.6,1.6C22.6,35.8,23.4,36.6,24.2,36.6
			L24.2,36.6z M13.6,47.1c0-0.9-0.7-1.6-1.6-1.6c-0.9,0-1.6,0.7-1.6,1.6c0,0.9,0.7,1.6,1.6,1.6C12.9,48.6,13.6,47.9,13.6,47.1
			L13.6,47.1z"/>
        <circle class="st0" cx="14.4" cy="51.9" r="1.6"/>
        <path class="st0" d="M8.6,49.2c-0.9,0-1.6,0.7-1.6,1.6c0,0.9,0.7,1.6,1.6,1.6s1.6-0.7,1.6-1.6C10.2,49.9,9.5,49.2,8.6,49.2
			L8.6,49.2z M20.3,51c-0.9,0-1.6,0.7-1.6,1.6c0,0.9,0.7,1.6,1.6,1.6s1.6-0.7,1.6-1.6S21.2,51,20.3,51L20.3,51z M34.4,17.3
			c-0.9,0-1.6,0.7-1.6,1.6s0.7,1.6,1.6,1.6c0.9,0,1.6-0.7,1.6-1.6S35.3,17.3,34.4,17.3z M45.6,18.6c0,0.9,0.7,1.6,1.6,1.6
			c0.9,0,1.6-0.7,1.6-1.6S48.1,17,47.2,17S45.6,17.7,45.6,18.6z"/>
        <circle class="st0" cx="43.7" cy="21.8" r="1.6"/>
        <path class="st0" d="M47.8,25.8c0.9,0,1.6-0.7,1.6-1.6s-0.7-1.6-1.6-1.6c-0.9,0-1.6,0.7-1.6,1.6C46.2,25.1,46.9,25.8,47.8,25.8
			L47.8,25.8z M48,28.4c-0.9,0-1.6,0.7-1.6,1.6s0.7,1.6,1.6,1.6c0.9,0,1.6-0.7,1.6-1.6S48.9,28.4,48,28.4L48,28.4z"/>
        <circle class="st0" cx="44.1" cy="27.2" r="1.6"/>
        <path class="st0" d="M40.4,26.4c0.9,0,1.6-0.7,1.6-1.6s-0.7-1.6-1.6-1.6c-0.9,0-1.6,0.7-1.6,1.6C38.8,25.6,39.5,26.4,40.4,26.4
			L40.4,26.4z"/>
	</g>
</svg>
